GONIDIS STAMATIS OLA LIVE 2005 ( 2 CD + DVD )
 
http://bayimg.com/BANnDaaDg
 
http://bayimg.com/baNNeaAdg

MP3 - 320

COVER - FROND

LIST - YES

                             INFO
General
Complete name                    : C:Downloads 2GONIDIS STAMATIS OLA LIVE 2005 ( 2 CD + DVD )DVDGONIDIS STAMATIS OLA LIVE 2005.wmv
Format                           : Windows Media
File size                        : 479 MiB
Duration                         : 1h 39mn
Overall bit rate                 : 670 Kbps
Maximum Overall bit rate         : 128 Kbps
Encoded date                     : UTC 1970-01-01 00:00:00.000

Video
ID                               : 1
Format                           : WMV2
Codec ID                         : WMV2
Codec ID/Info                    : Windows Media Video 8
Description of the codec         : wmv2
Duration                         : 1h 39mn
Bit rate                         : 506 Kbps
Width                            : 720 pixels
Height                           : 576 pixels
Display aspect ratio             : 5:4
Frame rate                       : 24.000 fps
Standard                         : PAL
Bit depth                        : 8 bits
Bits/(Pixel*Frame)               : 0.051
Stream size                      : 362 MiB (76%)

Audio
ID                               : 2
Format                           : WMA
Format version                   : Version 2
Codec ID                         : 161
Codec ID/Info                    : Windows Media Audio
Description of the codec         : Windows Media Audio V8
Duration                         : 1h 39mn
Bit rate                         : 128 Kbps
Channel(s)                       : 2 channels
Sampling rate                    : 44.1 KHz
Bit depth                        : 16 bits
Stream size                      : 91.5 MiB (19%)

